# xmcd
#
# Track frame offsets:
#	150
#	19925
#	42080
#	57080
#	75730
#	98537
#	116710
#	131205
#	151345
#	172062
#	193350
#
# Disc length: 2798 seconds
#
# Revision: 1
# Processed by: cddbd v1.5.1PL0 Copyright (c) Steve Scherf et al.
# Submitted via: CDex 1.50Beta5
#
DISCID=920aec0b
DTITLE=西脇睦宏 - 音のゆりかご〜産後編・生まれた赤ちゃんのリラクゼーション音楽〜
DYEAR=1994
DGENRE=
TTITLE0=キラキラ星
TTITLE1=シューベルトの子守歌
TTITLE2=眠りの森の美女
TTITLE3=メヌエット・ト長調
TTITLE4=モーツァルトの子守歌
TTITLE5=トロイメライ
TTITLE6=人形の子守歌
TTITLE7=ねんねんころりよ
TTITLE8=ブラームスの子守歌
TTITLE9=野ばらに寄す
TTITLE10=子宮内血流音
EXTD=
EXTT0=
EXTT1=
EXTT2=
EXTT3=
EXTT4=
EXTT5=
EXTT6=
EXTT7=
EXTT8=
EXTT9=
EXTT10=
PLAYORDER=
